<svg xmlns="http://www.w3.org/2000/svg" viewBox="0 0 530.66 593.37"><defs><style>.cls-1{fill:#36499b;}.cls-2{fill:#ff99a7;}</style></defs><g id="Capa_2" data-name="Capa 2"><g id="Layer_1" data-name="Layer 1"><path class="cls-1" d="M206.44,534.11c-2.22-9.8-14.33-12.42-22.89-13.05-6.88-.5-73-.33-73-.33s5.3,35.77-.1,71.55h10.79c-1.72-11.42-2.15-24.94-2.22-35.17,17.6-3.23,54-2.83,54.21-2.82,8,.46,12.4,8.19,16.07,14.46a46.64,46.64,0,0,1,6.66,23.53h10.8c0-10.61-6-20.37-12.49-28.36a120,120,0,0,0-8.76-9.54l.95-.1C197.16,552.91,209.33,546.91,206.44,534.11Zm-33.22,15.14c-41,1.84-54.22-2.48-54.22-2.46.21-5.69,0-15.74,0-19.84,16.86,0,34.32,0,51.47,0,6.49,0,13.68-.33,19.56,2.86,3.15,1.71,5.75,4.93,5.65,8.52-.12,4.78-4.79,8-9,9A74.2,74.2,0,0,1,173.22,549.25Z"/><path class="cls-1" d="M270.7,519.61c-28.64,0-51.86,16.51-51.86,36.88s23.22,36.88,51.86,36.88,51.86-16.51,51.86-36.88S299.35,519.61,270.7,519.61Zm0,69.23c-23,0-41.68-15.1-41.68-32.35S247.68,524,270.7,524s41.68,15.24,41.68,32.49S293.72,588.84,270.7,588.84Z"/><path class="cls-1" d="M2.81,520.75c.38,2.53.71,5.06,1,7.57.53,5.33,1.14,13.15,1.35,22.39,0,1.87.08,3.8.08,5.78v.61c-.06,11.48-.8,21.26-1.43,27.55q-.42,3.78-1,7.58h.1l10.6,0c-.72-3.3-1.22-6.18-1.22-6.18-.53-6.17-1-19.38-1.1-28.93h67v-8s-37.85,4.57-66.91,2.19c.16-7.64.59-19.19,1-24.35,36.05,0,85.68,4.5,85.68,4.5v-10.6l-95.06-.1Z"/><path class="cls-1" d="M406.26,536a146.36,146.36,0,0,1-11-15.27H384.63A283.35,283.35,0,0,1,386.71,569c-1.23-1.77-2.51-3.49-3.83-5.12-8.11-10-18.4-17.89-26.62-27.82a146.36,146.36,0,0,1-11-15.27H334.63s5.3,35.67-.09,71.44h10.78c-3.6-23.94-2.43-47.77-1.26-61,16.39,18,40.33,33.63,40.5,60.77l0,.19h10.83a30.51,30.51,0,0,0-1-7.63,277.61,277.61,0,0,1-.27-53.33c16.43,18.09,40.45,33.7,40.51,61h10.79c0-10.6-6-20.37-12.48-28.35C424.77,553.84,414.48,546,406.26,536Z"/><path class="cls-1" d="M517.2,510.37c.5,4.23,4.45,38.77,4.45,72.36-6.3.54-19.74,1.07-29.54,1.11-11.66,0-21.6-.79-28-1.42-2.57-.29-5.15-.62-7.73-1v10.8c2.53-.38,5.06-.71,7.57-1,6.41-.64,16.42-1.4,28.17-1.43s21.75.79,28.17,1.43c2.51.28,5,.61,7.57,1v-10.8c0,.1-.09-65.45-.1-71.08a.39.39,0,0,0-.4-.39H517.6A.39.39,0,0,0,517.2,510.37Z"/><path class="cls-1" d="M456.47,181.74l-.1,81.78v.09c2.53-.38,5.06-.71,7.57-1,5.33-.53,13.15-1.14,22.39-1.35,1.87,0,3.8-.07,5.78-.08h.61c11.48.07,21.26.8,27.56,1.43,2.51.28,5,.61,7.57,1v-.09l-.1-81.78a.4.4,0,0,0-.4-.4H517.6a.4.4,0,0,0-.4.45c.51,4.3,4.45,39,4.45,72.34-6.17.54-19.38,1.05-28.93,1.1V201.56a.39.39,0,0,0-.4-.4H485.2a.39.39,0,0,0-.39.46,232.55,232.55,0,0,1,2.11,53.56c-7.64-.16-19.19-.6-24.35-1.05,0-33.77,3.95-68.14,4.45-72.35a.39.39,0,0,0-.4-.44h-9.75A.4.4,0,0,0,456.47,181.74Z"/><path class="cls-1" d="M469.73,279.44c-9.8,2.22-12.42,14.33-13.05,22.89-.5,6.88-.33,73-.33,73s35.77-5.3,71.55.1V364.66c-11.42,1.72-24.94,2.15-35.17,2.22-3.23-17.6-2.83-54-2.82-54.21.46-8,8.19-12.4,14.46-16.07a46.64,46.64,0,0,1,23.53-6.66v-10.8c-10.61,0-20.37,6-28.36,12.49a120,120,0,0,0-9.54,8.76c0-.31-.06-.63-.1-.94C488.53,288.72,482.53,276.55,469.73,279.44Zm15.14,33.22c1.84,41-2.48,54.22-2.46,54.22-5.69-.21-15.73-.05-19.84,0,0-16.86.05-34.32,0-51.47,0-6.49-.33-13.68,2.86-19.56,1.71-3.15,4.93-5.75,8.52-5.65,4.78.12,8,4.79,9,9A74.2,74.2,0,0,1,484.87,312.66Z"/><path class="cls-1" d="M499.37,85.29a23.37,23.37,0,0,0-12.55,16.44c-2.29,11.29-1.42,23-3.08,34.33-.91,6.24-2.66,15.57-9.37,18.21a8.8,8.8,0,0,1-3.08.61c-6.75.18-10.82-7.72-12.33-13.19-2.14-7.77-1.69-15.21-.69-23.07.61-4.81,1.64-10,4.64-13.92,3.6-4.74,10.12-5.38,15.75-5.42a.4.4,0,0,0,.4-.4v-10a.41.41,0,0,0-.42-.41c-5,.08-9.84,1.44-13.69,4.82a30,30,0,0,0-7.8,11.72,45,45,0,0,0-2.46,9.8,129.47,129.47,0,0,0-1.13,19.51c0,7.78.43,15.41,4.17,22.8A15.86,15.86,0,0,0,470.52,166c20.06,1.43,18.57-29.25,19.14-41.7,0-9,.59-20.61,8.57-26.48,5.19-3.82,13.1-5.21,18.55-1.16,4.56,3.4,6.92,8.9,8.08,14.31a78.53,78.53,0,0,1,1.43,21c-.43,6.81-1.87,14.58-5.78,20.32-3.42,5-9.06,7.44-14.87,8.33a.39.39,0,0,0-.22.67l7.5,7.5a.42.42,0,0,0,.44.09,23,23,0,0,0,6.27-3.65c7.7-6.47,9.42-18.68,10.37-28.13,1.42-14.15.91-29.5-5.16-42.52A19.08,19.08,0,0,0,499.37,85.29Z"/><path class="cls-1" d="M471.65,426.57a144.35,144.35,0,0,1-15.24,11l0,0v9.88l0,0a144.35,144.35,0,0,1,15.24,11c9.94,8.22,17.81,18.52,27.83,26.63,7.89,6.38,17.5,12.29,27.95,12.48a.41.41,0,0,0,.42-.41v-10a.4.4,0,0,0-.4-.39c-14.16-.15-25.18-6.79-35-15.42a207.93,207.93,0,0,1-2.36-28.22,231.25,231.25,0,0,1,2.56-29.56c9.82-8.55,20.77-15.09,34.84-15.24a.4.4,0,0,0,.4-.39v-10a.41.41,0,0,0-.42-.41c-10.45.19-20.06,6.1-27.95,12.48C489.46,408.05,481.59,418.35,471.65,426.57ZM484.59,422c0,6.26.08,41,.08,41a.41.41,0,0,1-.69.29c-6-6-11.71-12.29-17.74-17.69q-1.78-1.59-3.62-3.12,1.83-1.53,3.62-3.12c6-5.38,11.72-11.63,17.66-17.6A.4.4,0,0,1,484.59,422Z"/><path class="cls-1" d="M324.22,59.26c2.22,9.81,14.33,12.42,22.89,13.05,6.88.5,73,.34,73,.34s-5.3-35.77.1-71.56h-10.8c1.72,11.42,2.16,24.94,2.22,35.18-17.59,3.22-54,2.83-54.2,2.82-8-.47-12.41-8.19-16.08-14.47a46.84,46.84,0,0,1-6.66-23.53H323.92c0,10.61,6,20.38,12.49,28.37A119.72,119.72,0,0,0,345.17,39l-.95.11C333.5,40.46,321.32,46.46,324.22,59.26Zm33.22-15.13c41-1.85,54.21,2.47,54.21,2.45-.21,5.69,0,15.74,0,19.84-16.86,0-34.31,0-51.46,0-6.49,0-13.68.33-19.56-2.86-3.15-1.71-5.75-4.93-5.66-8.52.13-4.78,4.79-8,9-9A72.58,72.58,0,0,1,357.44,44.13Z"/><path class="cls-1" d="M260,73.77c28.65,0,51.87-16.52,51.87-36.89S288.6,0,260,0s-51.86,16.51-51.86,36.88S231.31,73.77,260,73.77Zm0-69.23c23,0,41.69,15.09,41.69,32.34S283,69.37,260,69.37s-41.68-15.23-41.68-32.49S236.93,4.54,260,4.54Z"/><path class="cls-1" d="M527.85,72.62c-.38-2.53-.71-5.06-1-7.57-.53-5.33-1.14-13.15-1.36-22.38,0-1.88-.07-3.8-.07-5.79v-.61c.06-11.48.8-21.25,1.43-27.55q.42-3.78,1-7.57h-10.7c.72,3.3,1.22,6.18,1.22,6.18.53,6.17,1,19.39,1.1,28.93h-67v8s37.85-4.58,66.91-2.2c-.16,7.64-.6,19.19-1,24.35-36.06,0-85.69-4.5-85.69-4.5v10.6l95.07.1Z"/><path class="cls-1" d="M124.39,57.33a146,146,0,0,1,11,15.27H146a283.82,283.82,0,0,1-2.09-48.21c1.24,1.77,2.52,3.49,3.84,5.12,8.1,10,18.4,17.89,26.61,27.82a144.51,144.51,0,0,1,11,15.27H196s-5.3-35.67.09-71.43H185.33c3.61,23.93,2.44,47.77,1.26,61-16.39-18-40.32-33.63-40.49-60.77,0-.06,0-.12,0-.18H135.3a31,31,0,0,0,1,7.62,278.58,278.58,0,0,1,.28,53.33C120.17,44,96.14,28.42,96.09,1.17H85.3c0,10.6,6,20.36,12.48,28.34C105.88,39.53,116.18,47.4,124.39,57.33Z"/><path class="cls-1" d="M13.46,83C13,78.77,9,44.23,9,10.65c6.3-.55,19.74-1.08,29.54-1.11,11.65,0,21.59.78,28,1.42,2.56.28,5.14.61,7.72,1V1.17c-2.52.38-5,.7-7.57,1-6.41.64-16.41,1.4-28.16,1.44s-21.76-.8-28.17-1.44c-2.51-.28-5-.6-7.57-1V12c0-.09.09,65.45.1,71.09a.38.38,0,0,0,.4.38h9.75A.39.39,0,0,0,13.46,83Z"/><path class="cls-1" d="M74.19,411.63l.09-81.77v-.1c-2.52.38-5,.71-7.57,1-5.33.53-13.15,1.14-22.38,1.36-1.87,0-3.8.07-5.78.07h-.62c-11.48-.06-21.25-.8-27.55-1.43-2.51-.28-5-.61-7.57-1v.1l.1,81.77a.4.4,0,0,0,.4.4h9.75a.41.41,0,0,0,.4-.45C13,407.29,9,372.58,9,339.24c6.16-.53,19.38-1.05,28.92-1.1v53.67a.4.4,0,0,0,.4.41h7.12a.4.4,0,0,0,.4-.47,232.19,232.19,0,0,1-2.12-53.55c7.64.16,19.2.59,24.36,1,0,33.77-4,68.14-4.45,72.36a.39.39,0,0,0,.4.43h9.75A.4.4,0,0,0,74.19,411.63Z"/><path class="cls-1" d="M60.93,313.93c9.8-2.22,12.42-14.33,13-22.89.51-6.88.34-73,.34-73s-35.77,5.3-71.55-.1v10.8c11.42-1.72,24.94-2.16,35.17-2.23,3.22,17.6,2.83,54,2.82,54.21-.46,8-8.19,12.41-14.46,16.07a46.78,46.78,0,0,1-23.53,6.67v10.79c10.6,0,20.37-6,28.36-12.49A119.86,119.86,0,0,0,40.66,293c0,.32.06.63.1.95C42.12,304.65,48.13,316.83,60.93,313.93ZM45.79,280.71c-1.85-41,2.48-54.22,2.46-54.22,5.69.21,15.73,0,19.84,0,0,16.87,0,34.32,0,51.47,0,6.49.32,13.68-2.87,19.56-1.71,3.15-4.93,5.75-8.51,5.66-4.78-.13-8-4.79-9-9A74.31,74.31,0,0,1,45.79,280.71Z"/><path class="cls-1" d="M31.29,508.08a23.4,23.4,0,0,0,12.55-16.44c2.29-11.29,1.41-22.95,3.07-34.33.92-6.24,2.67-15.57,9.37-18.21a9.33,9.33,0,0,1,3.09-.61c6.75-.18,10.81,7.73,12.32,13.2,2.14,7.76,1.7,15.2.7,23.07-.62,4.8-1.65,10-4.64,13.91-3.6,4.75-10.12,5.39-15.76,5.42a.4.4,0,0,0-.39.4v10a.42.42,0,0,0,.41.41c5-.09,9.84-1.45,13.7-4.82a30,30,0,0,0,7.79-11.72,44.57,44.57,0,0,0,2.47-9.8A131,131,0,0,0,77.1,459c0-7.77-.43-15.41-4.17-22.79a15.85,15.85,0,0,0-12.79-8.88c-20.06-1.43-18.57,29.26-19.15,41.7,0,9.05-.58,20.61-8.56,26.48-5.2,3.83-13.1,5.22-18.56,1.16C9.32,493.31,7,487.8,5.8,482.39a78.5,78.5,0,0,1-1.44-21c.43-6.81,1.88-14.57,5.79-20.31,3.42-5,9-7.45,14.87-8.34a.39.39,0,0,0,.22-.66l-7.5-7.5a.39.39,0,0,0-.44-.09A23,23,0,0,0,11,428.16c-7.7,6.47-9.41,18.68-10.36,28.13-1.42,14.15-.91,29.5,5.16,42.53A19.09,19.09,0,0,0,31.29,508.08Z"/><path class="cls-1" d="M59,166.8a145.27,145.27,0,0,1,15.23-11l0,0V146l0,0A145.27,145.27,0,0,1,59,135c-9.94-8.22-17.81-18.52-27.84-26.63C23.29,102,13.67,96.08,3.23,95.89a.41.41,0,0,0-.42.41v10a.39.39,0,0,0,.39.39c14.17.15,25.18,6.79,35.05,15.43a207.76,207.76,0,0,1,2.36,28.21A228.65,228.65,0,0,1,38,179.88C28.23,188.43,17.27,195,3.2,195.12a.4.4,0,0,0-.39.39v10a.42.42,0,0,0,.42.42c10.44-.19,20.06-6.11,27.94-12.49C41.2,185.32,49.07,175,59,166.8Zm-12.94,4.55c0-6.26-.08-41-.08-41a.4.4,0,0,1,.68-.29c6,6,11.71,12.29,17.74,17.69,1.19,1.06,2.41,2.1,3.63,3.12-1.22,1-2.44,2.06-3.63,3.12-6,5.38-11.71,11.63-17.65,17.6A.4.4,0,0,1,46.07,171.35Z"/></g><g id="Layer_2" data-name="Layer 2"><polygon class="cls-2" points="259.95 533.71 259.95 536.64 50.66 509.35 50.66 506.42 259.95 533.71"/><polygon class="cls-2" points="259.95 527.9 259.95 530.83 50.66 503.54 50.66 500.61 259.95 527.9"/><polygon class="cls-2" points="259.95 522.09 259.95 525.02 50.66 497.73 50.66 494.8 259.95 522.09"/><polygon class="cls-2" points="259.95 518.51 259.95 504.95 50.66 477.66 50.66 491.21 259.95 518.51"/><polygon class="cls-2" points="259.95 474.3 259.95 477.23 50.66 449.94 50.66 447.01 259.95 474.3"/><polygon class="cls-2" points="259.95 470.72 259.95 377.5 50.66 350.21 50.66 443.42 259.95 470.72"/><polygon class="cls-2" points="259.95 255.16 259.95 258.09 50.66 230.8 50.66 227.87 259.95 255.16"/><polygon class="cls-2" points="259.95 249.35 259.95 252.28 50.66 224.99 50.66 222.06 259.95 249.35"/><polygon class="cls-2" points="259.95 243.54 259.95 246.47 50.66 219.18 50.66 216.25 259.95 243.54"/><polygon class="cls-2" points="259.95 286.03 259.95 316.2 50.66 288.9 50.66 258.74 259.95 286.03"/><polygon class="cls-2" points="259.95 239.95 259.95 226.4 50.66 199.1 50.66 212.66 259.95 239.95"/><polygon class="cls-2" points="259.95 195.75 259.95 198.68 50.66 171.38 50.66 168.46 259.95 195.75"/><rect class="cls-2" x="259.95" y="494.21" width="209.29" height="2.93"/><rect class="cls-2" x="259.95" y="488.4" width="209.29" height="2.93"/><rect class="cls-2" x="259.95" y="482.59" width="209.29" height="2.93"/><rect class="cls-2" x="259.95" y="465.45" width="209.29" height="13.56"/><rect class="cls-2" x="259.95" y="283.04" width="209.29" height="5.86"/><rect class="cls-2" x="259.95" y="246.53" width="209.29" height="30.16"/><rect class="cls-2" x="259.95" y="156.24" width="209.29" height="2.93"/><rect class="cls-2" x="259.95" y="59.44" width="209.29" height="93.21"/></g></g></svg>