<svg xmlns="http://www.w3.org/2000/svg" viewBox="0 0 480 41.34"><defs><style>.cls-1{fill:#36499b;}</style></defs><g id="Capa_2" data-name="Capa 2"><g id="Layer_1" data-name="Layer 1"><path class="cls-1" d="M101.34,8.67C100.23,3.41,94.21,2,90,1.67c-3.43-.27-36.34-.18-36.34-.18s2.64,19.19,0,38.38h5.37A150.53,150.53,0,0,1,57.83,21c8.75-1.73,26.87-1.51,27-1.51,4,.25,6.18,4.39,8,7.76a26.54,26.54,0,0,1,3.32,12.62h5.37c0-5.69-3-10.93-6.22-15.21a59.46,59.46,0,0,0-4.36-5.12c.16,0,.32,0,.47-.06C96.72,18.75,102.78,15.54,101.34,8.67ZM84.81,16.79c-20.39,1-27-1.33-27-1.32.1-3.05,0-8.44,0-10.64,8.39,0,17.07,0,25.61,0,3.23,0,6.81-.17,9.73,1.54A5.4,5.4,0,0,1,96,10.93c-.06,2.57-2.39,4.29-4.5,4.83A34.5,34.5,0,0,1,84.81,16.79Z"/><path class="cls-1" d="M133.32.89c-14.25,0-25.81,8.86-25.81,19.78s11.56,19.78,25.81,19.78,25.81-8.85,25.81-19.78S147.58.89,133.32.89Zm0,37.13c-11.45,0-20.74-8.1-20.74-17.35s9.29-17.42,20.74-17.42,20.75,8.17,20.75,17.42S144.78,38,133.32,38Z"/><path class="cls-1" d="M0,1.51C.19,2.86.35,4.22.49,5.57c.27,2.86.57,7,.68,12,0,1,0,2,0,3.1,0,.11,0,.22,0,.33,0,6.16-.4,11.4-.71,14.78-.14,1.35-.3,2.7-.49,4.06H5.32c-.35-1.77-.6-3.32-.6-3.32-.27-3.3-.53-10.39-.55-15.51H37.5V16.71S18.66,19.17,4.2,17.89c.08-4.1.3-10.29.52-13.06,17.94,0,42.64,2.41,42.64,2.41V1.56L.05,1.51Z"/><path class="cls-1" d="M200.79,9.71a76.85,76.85,0,0,1-5.48-8.19H190a164.17,164.17,0,0,1,1,25.85c-.62-.95-1.26-1.87-1.91-2.75-4-5.37-9.16-9.59-13.25-14.91a80,80,0,0,1-5.48-8.19h-5.28s2.63,19.13,0,38.31h5.37a154.74,154.74,0,0,1-.63-32.69c8.16,9.67,20.07,18,20.16,32.59,0,0,0,.06,0,.1h5.39a17.42,17.42,0,0,0-.51-4.09,160.19,160.19,0,0,1-.14-28.6c8.18,9.7,20.14,18.07,20.16,32.69h5.37c0-5.69-3-10.92-6.21-15.21C210,19.25,204.87,15,200.79,9.71Z"/><path class="cls-1" d="M267.53,34.13a320.36,320.36,0,0,1-36,2.38c-.27-3.37-.54-10.58-.55-15.84,0-6.25.38-11.58.7-15,.14-1.37.31-2.76.5-4.14H226.8c.19,1.35.35,2.71.49,4.06.32,3.44.7,8.8.71,15.1s-.39,11.67-.71,15.11c-.14,1.35-.3,2.7-.49,4.06h5.37l35.38-.05a.2.2,0,0,0,.19-.22V34.34A.19.19,0,0,0,267.53,34.13Z"/><path class="cls-1" d="M431.07,1.56l-40.69-.05h-.05c.19,1.35.35,2.71.49,4.06.27,2.86.57,7,.68,12,0,1,0,2,0,3.1,0,.11,0,.22,0,.33,0,6.16-.39,11.4-.71,14.78-.14,1.35-.3,2.7-.49,4.06h.05l40.69-.05a.21.21,0,0,0,.2-.22V34.34a.2.2,0,0,0-.22-.21,323.35,323.35,0,0,1-36,2.38c-.27-3.3-.52-10.39-.55-15.51h26.71a.2.2,0,0,0,.2-.21V17a.2.2,0,0,0-.23-.21,107.34,107.34,0,0,1-26.65,1.13c.08-4.1.3-10.29.52-13.06a317.2,317.2,0,0,1,36,2.39.2.2,0,0,0,.21-.22V1.77A.2.2,0,0,0,431.07,1.56Z"/><path class="cls-1" d="M382.45,8.67c-1.1-5.26-7.13-6.66-11.39-7-3.42-.27-36.34-.18-36.34-.18s2.64,19.19-.05,38.38H340A152.45,152.45,0,0,1,338.94,21c8.75-1.73,26.87-1.51,27-1.51,4,.25,6.17,4.39,8,7.76a26.54,26.54,0,0,1,3.32,12.62h5.37c0-5.69-3-10.93-6.21-15.21A63.25,63.25,0,0,0,372,19.54l.47-.06C377.83,18.75,383.89,15.54,382.45,8.67Zm-16.53,8.12c-20.39,1-27-1.33-27-1.32.1-3.05,0-8.44,0-10.64,8.39,0,17.08,0,25.61,0,3.23,0,6.81-.17,9.74,1.54a5.37,5.37,0,0,1,2.81,4.56c-.06,2.57-2.38,4.29-4.5,4.83A34.5,34.5,0,0,1,365.92,16.79Z"/><path class="cls-1" d="M479.07,24.57a11.78,11.78,0,0,0-8.17-6.74c-5.63-1.22-11.43-.75-17.09-1.64-3.11-.49-7.75-1.43-9.06-5a5.18,5.18,0,0,1-.31-1.65c-.09-3.62,3.85-5.8,6.57-6.61,3.86-1.15,7.57-.91,11.48-.37A13.66,13.66,0,0,1,469.42,5c2.36,1.93,2.68,5.43,2.69,8.45a.21.21,0,0,0,.2.21h5a.22.22,0,0,0,.21-.22,11.7,11.7,0,0,0-2.4-7.34,14.86,14.86,0,0,0-5.84-4.18A21,21,0,0,0,464.38.6a60.93,60.93,0,0,0-9.72-.6c-3.87,0-7.66.23-11.34,2.23a8.53,8.53,0,0,0-4.42,6.86c-.71,10.76,14.56,10,20.75,10.27,4.51,0,10.26.31,13.19,4.6,1.9,2.78,2.59,7,.57,9.94a11.52,11.52,0,0,1-7.12,4.34,36.27,36.27,0,0,1-10.44.76c-3.39-.23-7.25-1-10.11-3.1-2.49-1.83-3.7-4.85-4.14-8a.19.19,0,0,0-.33-.12l-3.74,4a.26.26,0,0,0,0,.24,12.52,12.52,0,0,0,1.81,3.36c3.22,4.13,9.3,5,14,5.56,7,.76,14.68.49,21.16-2.76A10.58,10.58,0,0,0,479.07,24.57Z"/><path class="cls-1" d="M309.23,9.7a78,78,0,0,1-5.47-8.17l0,0h-4.92l0,0a79.64,79.64,0,0,1-5.47,8.17c-4.1,5.33-9.22,9.55-13.26,14.93-3.17,4.22-6.12,9.38-6.21,15a.22.22,0,0,0,.21.23h5a.21.21,0,0,0,.19-.21c.08-7.6,3.38-13.51,7.68-18.8a97.49,97.49,0,0,1,14-1.26,106.51,106.51,0,0,1,14.71,1.37c4.25,5.26,7.51,11.14,7.59,18.69a.2.2,0,0,0,.19.21h5a.22.22,0,0,0,.21-.23c-.1-5.6-3-10.76-6.22-15C318.45,19.25,313.32,15,309.23,9.7Zm2.26,6.94-20.38,0a.22.22,0,0,1-.15-.37c3-3.2,6.12-6.27,8.8-9.51.53-.64,1.05-1.29,1.56-1.94.51.65,1,1.3,1.55,1.94,2.68,3.22,5.79,6.28,8.76,9.47A.22.22,0,0,1,311.49,16.64Z"/></g></g></svg>